<svg viewBox="0 0 100 100" xmlns="http://www.w3.org/2000/svg" id="Network-Connection-2--Streamline-Ux">
  <desc>
    Network Connection 2 Streamline Illustration: https://streamlinehq.com
  </desc>
  <path d="M10 49.642a40 40 0 1 0 80 0 40 40 0 1 0 -80 0Z" fill="#daedf7" stroke="#daedf7" stroke-width="1"></path>
  <path d="m17.98 50 16.01 -8.738" fill="none" stroke="#45413c" stroke-linecap="round" stroke-linejoin="round" stroke-width="1"></path>
  <path d="m82.02 50 -16.01 -8.738" fill="none" stroke="#45413c" stroke-linecap="round" stroke-linejoin="round" stroke-width="1"></path>
  <path d="m33.99 58.737 0 20.6" fill="none" stroke="#45413c" stroke-linecap="round" stroke-linejoin="round" stroke-width="1"></path>
  <path d="m17.98 50 16.01 8.737" fill="none" stroke="#45413c" stroke-linecap="round" stroke-linejoin="round" stroke-width="1"></path>
  <path d="m66.01 58.737 0 20.6" fill="none" stroke="#45413c" stroke-linecap="round" stroke-linejoin="round" stroke-width="1"></path>
  <path d="m50 50 16.01 8.737" fill="none" stroke="#45413c" stroke-linecap="round" stroke-linejoin="round" stroke-width="1"></path>
  <path d="m50 50 -16.01 8.737" fill="none" stroke="#45413c" stroke-linecap="round" stroke-linejoin="round" stroke-width="1"></path>
  <path d="m50 88.074 16.01 -8.737" fill="none" stroke="#45413c" stroke-linecap="round" stroke-linejoin="round" stroke-width="1"></path>
  <path d="m50 88.074 -16.01 -8.737" fill="none" stroke="#45413c" stroke-linecap="round" stroke-linejoin="round" stroke-width="1"></path>
  <path d="m82.02 50 -16.01 8.737" fill="none" stroke="#45413c" stroke-linecap="round" stroke-linejoin="round" stroke-width="1"></path>
  <path d="m50 50 16.01 -8.738" fill="none" stroke="#45413c" stroke-linecap="round" stroke-linejoin="round" stroke-width="1"></path>
  <path d="m50 50 -16.01 -8.738" fill="none" stroke="#45413c" stroke-linecap="round" stroke-linejoin="round" stroke-width="1"></path>
  <path d="M17.417 69.399 33.99 58.737" fill="none" stroke="#45413c" stroke-linecap="round" stroke-linejoin="round" stroke-width="1"></path>
  <path d="m17.98 50 0 19.037" fill="none" stroke="#45413c" stroke-linecap="round" stroke-linejoin="round" stroke-width="1"></path>
  <path d="m33.99 79.337 -16.01 -10.3" fill="none" stroke="#45413c" stroke-linecap="round" stroke-linejoin="round" stroke-width="1"></path>
  <path d="m66.01 79.337 16.01 -10.3" fill="none" stroke="#45413c" stroke-linecap="round" stroke-linejoin="round" stroke-width="1"></path>
  <path d="m82.02 50 0 19.037" fill="none" stroke="#45413c" stroke-linecap="round" stroke-linejoin="round" stroke-width="1"></path>
  <path d="m80.91 68.322 -14.9 -9.585" fill="none" stroke="#45413c" stroke-linecap="round" stroke-linejoin="round" stroke-width="1"></path>
  <path d="m33.99 79.337 32.02 -20.6" fill="none" stroke="#45413c" stroke-linecap="round" stroke-linejoin="round" stroke-width="1"></path>
  <path d="m50 50 0 38.074" fill="none" stroke="#45413c" stroke-linecap="round" stroke-linejoin="round" stroke-width="1"></path>
  <path d="m66.01 79.337 -32.02 -20.6" fill="none" stroke="#45413c" stroke-linecap="round" stroke-linejoin="round" stroke-width="1"></path>
  <path d="M45.872 50a4.128 4.128 0 1 0 8.256 0 4.128 4.128 0 1 0 -8.256 0Z" fill="#ff6242" stroke-width="1"></path>
  <path d="M50 48.257a4.129 4.129 0 0 1 3.953 2.935 4.128 4.128 0 1 0 -7.906 0A4.129 4.129 0 0 1 50 48.257Z" fill="#ff6242" stroke-width="1"></path>
  <path d="M45.872 50a4.128 4.128 0 1 0 8.256 0 4.128 4.128 0 1 0 -8.256 0Z" fill="none" stroke="#45413c" stroke-linecap="round" stroke-linejoin="round" stroke-width="1"></path>
  <path d="M77.892 50a4.128 4.128 0 1 0 8.256 0 4.128 4.128 0 1 0 -8.256 0Z" fill="#ff6242" stroke-width="1"></path>
  <path d="M82.02 48.257a4.131 4.131 0 0 1 3.954 2.935 4.129 4.129 0 1 0 -7.907 0 4.13 4.13 0 0 1 3.953 -2.935Z" fill="#ff6242" stroke-width="1"></path>
  <path d="M77.892 50a4.128 4.128 0 1 0 8.256 0 4.128 4.128 0 1 0 -8.256 0Z" fill="none" stroke="#45413c" stroke-linecap="round" stroke-linejoin="round" stroke-width="1"></path>
  <path d="M77.892 69.037a4.128 4.128 0 1 0 8.256 0 4.128 4.128 0 1 0 -8.256 0Z" fill="#ff6242" stroke-width="1"></path>
  <path d="M82.02 67.294a4.131 4.131 0 0 1 3.954 2.935 4.129 4.129 0 1 0 -7.907 0 4.13 4.13 0 0 1 3.953 -2.935Z" fill="#ff6242" stroke-width="1"></path>
  <path d="M77.892 69.037a4.128 4.128 0 1 0 8.256 0 4.128 4.128 0 1 0 -8.256 0Z" fill="none" stroke="#45413c" stroke-linecap="round" stroke-linejoin="round" stroke-width="1"></path>
  <path d="M13.852 50a4.128 4.128 0 1 0 8.256 0 4.128 4.128 0 1 0 -8.256 0Z" fill="#ff6242" stroke-width="1"></path>
  <path d="M17.98 48.257a4.131 4.131 0 0 0 -3.954 2.935 4.129 4.129 0 1 1 7.907 0 4.13 4.13 0 0 0 -3.953 -2.935Z" fill="#ff6242" stroke-width="1"></path>
  <path d="M13.852 50a4.128 4.128 0 1 0 8.256 0 4.128 4.128 0 1 0 -8.256 0Z" fill="none" stroke="#45413c" stroke-linecap="round" stroke-linejoin="round" stroke-width="1"></path>
  <path d="M13.852 69.037a4.128 4.128 0 1 0 8.256 0 4.128 4.128 0 1 0 -8.256 0Z" fill="#ff6242" stroke-width="1"></path>
  <path d="M17.98 67.294a4.131 4.131 0 0 0 -3.954 2.935 4.129 4.129 0 1 1 7.907 0 4.13 4.13 0 0 0 -3.953 -2.935Z" fill="#ff6242" stroke-width="1"></path>
  <path d="M13.852 69.037a4.128 4.128 0 1 0 8.256 0 4.128 4.128 0 1 0 -8.256 0Z" fill="none" stroke="#45413c" stroke-linecap="round" stroke-linejoin="round" stroke-width="1"></path>
  <path d="M45.872 69.037a4.128 4.128 0 1 0 8.256 0 4.128 4.128 0 1 0 -8.256 0Z" fill="#ff6242" stroke-width="1"></path>
  <path d="M50 67.294a4.129 4.129 0 0 1 3.953 2.935 4.128 4.128 0 1 0 -7.906 0A4.129 4.129 0 0 1 50 67.294Z" fill="#ff6242" stroke-width="1"></path>
  <path d="M45.872 69.037a4.128 4.128 0 1 0 8.256 0 4.128 4.128 0 1 0 -8.256 0Z" fill="none" stroke="#45413c" stroke-linecap="round" stroke-linejoin="round" stroke-width="1"></path>
  <path d="M45.872 88.074a4.128 4.128 0 1 0 8.256 0 4.128 4.128 0 1 0 -8.256 0Z" fill="#ff6242" stroke-width="1"></path>
  <path d="M50 86.331a4.129 4.129 0 0 1 3.953 2.935 4.128 4.128 0 1 0 -7.906 0A4.129 4.129 0 0 1 50 86.331Z" fill="#ff6242" stroke-width="1"></path>
  <path d="M45.872 88.074a4.128 4.128 0 1 0 8.256 0 4.128 4.128 0 1 0 -8.256 0Z" fill="none" stroke="#45413c" stroke-linecap="round" stroke-linejoin="round" stroke-width="1"></path>
  <path d="M61.883 58.738a4.128 4.128 0 1 0 8.256 0 4.128 4.128 0 1 0 -8.256 0Z" fill="#4acfff" stroke-width="1"></path>
  <path d="M63.48 57.861a4.131 4.131 0 0 1 6.484 2.069 4.129 4.129 0 1 0 -7.906 0 4.107 4.107 0 0 1 1.422 -2.069Z" fill="#4acfff" stroke-width="1"></path>
  <path d="M61.883 58.738a4.128 4.128 0 1 0 8.256 0 4.128 4.128 0 1 0 -8.256 0Z" fill="none" stroke="#45413c" stroke-linecap="round" stroke-linejoin="round" stroke-width="1"></path>
  <path d="M61.883 79.337a4.128 4.128 0 1 0 8.256 0 4.128 4.128 0 1 0 -8.256 0Z" fill="#4acfff" stroke-width="1"></path>
  <path d="M63.48 78.46a4.131 4.131 0 0 1 6.484 2.069 4.129 4.129 0 1 0 -7.906 0 4.107 4.107 0 0 1 1.422 -2.069Z" fill="#4acfff" stroke-width="1"></path>
  <path d="M61.883 79.337a4.128 4.128 0 1 0 8.256 0 4.128 4.128 0 1 0 -8.256 0Z" fill="none" stroke="#45413c" stroke-linecap="round" stroke-linejoin="round" stroke-width="1"></path>
  <path d="M29.862 58.738a4.128 4.128 0 1 0 8.256 0 4.128 4.128 0 1 0 -8.256 0Z" fill="#ffe500" stroke-width="1"></path>
  <path d="M31.46 57.861a4.129 4.129 0 0 1 6.483 2.069 4.129 4.129 0 1 0 -7.906 0 4.116 4.116 0 0 1 1.423 -2.069Z" fill="#fff48c" stroke-width="1"></path>
  <path d="M29.862 58.738a4.128 4.128 0 1 0 8.256 0 4.128 4.128 0 1 0 -8.256 0Z" fill="none" stroke="#45413c" stroke-linecap="round" stroke-linejoin="round" stroke-width="1"></path>
  <path d="M29.862 79.336a4.128 4.128 0 1 0 8.256 0 4.128 4.128 0 1 0 -8.256 0Z" fill="#ffe500" stroke-width="1"></path>
  <path d="M31.46 78.46a4.13 4.13 0 0 1 6.483 2.068 4.129 4.129 0 1 0 -7.906 0 4.107 4.107 0 0 1 1.423 -2.068Z" fill="#fff48c" stroke-width="1"></path>
  <path d="M29.862 79.336a4.128 4.128 0 1 0 8.256 0 4.128 4.128 0 1 0 -8.256 0Z" fill="none" stroke="#45413c" stroke-linecap="round" stroke-linejoin="round" stroke-width="1"></path>
  <path d="m66.01 20.663 0 20.599" fill="none" stroke="#45413c" stroke-linecap="round" stroke-linejoin="round" stroke-width="1"></path>
  <path d="m33.99 20.663 0 20.599" fill="none" stroke="#45413c" stroke-linecap="round" stroke-linejoin="round" stroke-width="1"></path>
  <path d="m50 11.926 16.01 8.737" fill="none" stroke="#45413c" stroke-linecap="round" stroke-linejoin="round" stroke-width="1"></path>
  <path d="m50 11.926 -16.01 8.737" fill="none" stroke="#45413c" stroke-linecap="round" stroke-linejoin="round" stroke-width="1"></path>
  <path d="m33.99 41.263 32.02 -20.6" fill="none" stroke="#45413c" stroke-linecap="round" stroke-linejoin="round" stroke-width="1"></path>
  <path d="m50 7.902 0 38.074" fill="none" stroke="#45413c" stroke-linecap="round" stroke-linejoin="round" stroke-width="1"></path>
  <path d="m66.01 41.263 -32.02 -20.6" fill="none" stroke="#45413c" stroke-linecap="round" stroke-linejoin="round" stroke-width="1"></path>
  <path d="M45.872 30.963a4.128 4.128 0 1 0 8.256 0 4.128 4.128 0 1 0 -8.256 0Z" fill="#ff6242" stroke-width="1"></path>
  <path d="M50 29.22a4.129 4.129 0 0 1 3.953 2.935 4.128 4.128 0 1 0 -7.906 0A4.129 4.129 0 0 1 50 29.22Z" fill="#ff6242" stroke-width="1"></path>
  <path d="M45.872 30.963a4.128 4.128 0 1 0 8.256 0 4.128 4.128 0 1 0 -8.256 0Z" fill="none" stroke="#45413c" stroke-linecap="round" stroke-linejoin="round" stroke-width="1"></path>
  <path d="M29.862 20.663a4.128 4.128 0 1 0 8.256 0 4.128 4.128 0 1 0 -8.256 0Z" fill="#4acfff" stroke-width="1"></path>
  <path d="M31.459 19.787a4.132 4.132 0 0 1 6.484 2.068 4.129 4.129 0 1 0 -7.906 0 4.1 4.1 0 0 1 1.422 -2.068Z" fill="#4acfff" stroke-width="1"></path>
  <path d="M29.862 20.663a4.128 4.128 0 1 0 8.256 0 4.128 4.128 0 1 0 -8.256 0Z" fill="none" stroke="#45413c" stroke-linecap="round" stroke-linejoin="round" stroke-width="1"></path>
  <path d="M29.862 41.263a4.128 4.128 0 1 0 8.256 0 4.128 4.128 0 1 0 -8.256 0Z" fill="#4acfff" stroke-width="1"></path>
  <path d="M31.459 40.386a4.131 4.131 0 0 1 6.484 2.069 4.129 4.129 0 1 0 -7.906 0 4.107 4.107 0 0 1 1.422 -2.069Z" fill="#4acfff" stroke-width="1"></path>
  <path d="M29.862 41.263a4.128 4.128 0 1 0 8.256 0 4.128 4.128 0 1 0 -8.256 0Z" fill="none" stroke="#45413c" stroke-linecap="round" stroke-linejoin="round" stroke-width="1"></path>
  <path d="M61.882 20.663a4.128 4.128 0 1 0 8.256 0 4.128 4.128 0 1 0 -8.256 0Z" fill="#ffe500" stroke-width="1"></path>
  <path d="M63.479 19.787a4.13 4.13 0 0 1 6.484 2.068 4.129 4.129 0 1 0 -7.906 0 4.116 4.116 0 0 1 1.422 -2.068Z" fill="#fff48c" stroke-width="1"></path>
  <path d="M61.882 20.663a4.128 4.128 0 1 0 8.256 0 4.128 4.128 0 1 0 -8.256 0Z" fill="none" stroke="#45413c" stroke-linecap="round" stroke-linejoin="round" stroke-width="1"></path>
  <path d="M61.882 41.263a4.128 4.128 0 1 0 8.256 0 4.128 4.128 0 1 0 -8.256 0Z" fill="#ffe500" stroke-width="1"></path>
  <path d="M63.48 40.386a4.131 4.131 0 0 1 6.484 2.069 4.129 4.129 0 1 0 -7.907 0 4.116 4.116 0 0 1 1.423 -2.069Z" fill="#fff48c" stroke-width="1"></path>
  <path d="M61.882 41.263a4.128 4.128 0 1 0 8.256 0 4.128 4.128 0 1 0 -8.256 0Z" fill="none" stroke="#45413c" stroke-linecap="round" stroke-linejoin="round" stroke-width="1"></path>
  <path d="M45.872 11.926a4.128 4.128 0 1 0 8.256 0 4.128 4.128 0 1 0 -8.256 0Z" fill="#ff6242" stroke-width="1"></path>
  <path d="M50 10.183a4.129 4.129 0 0 1 3.953 2.935 4.128 4.128 0 1 0 -7.906 0A4.129 4.129 0 0 1 50 10.183Z" fill="#ff6242" stroke-width="1"></path>
  <path d="M45.872 11.926a4.128 4.128 0 1 0 8.256 0 4.128 4.128 0 1 0 -8.256 0Z" fill="none" stroke="#45413c" stroke-linecap="round" stroke-linejoin="round" stroke-width="1"></path>
</svg>