<svg viewBox="0 0 100 100" xmlns="http://www.w3.org/2000/svg" id="Network-Connection-3--Streamline-Ux">
  <desc>
    Network Connection 3 Streamline Illustration: https://streamlinehq.com
  </desc>
  <path d="M10 49.206a40 40 0 1 0 80 0 40 40 0 1 0 -80 0Z" fill="#daedf7" stroke="#daedf7" stroke-width="1"></path>
  <path d="m68.275 25.598 -51.869 0" fill="none" stroke="#4acfff" stroke-linecap="round" stroke-linejoin="round" stroke-width="1"></path>
  <path d="m86.599 40.061 -73.1 0" fill="none" stroke="#4acfff" stroke-linecap="round" stroke-linejoin="round" stroke-width="1"></path>
  <path d="m78.044 54.525 -38.73 0" fill="none" stroke="#4acfff" stroke-linecap="round" stroke-linejoin="round" stroke-width="1"></path>
  <path d="m75.424 68.988 -29.901 0" fill="none" stroke="#4acfff" stroke-linecap="round" stroke-linejoin="round" stroke-width="1"></path>
  <path d="m67.962 83.452 -25.68 0" fill="none" stroke="#4acfff" stroke-linecap="round" stroke-linejoin="round" stroke-width="1"></path>
  <path d="m68.275 83.147 0 -57.549" fill="none" stroke="#4acfff" stroke-linecap="round" stroke-linejoin="round" stroke-width="1"></path>
  <path d="m53.812 90.794 0 -77.447" fill="none" stroke="#4acfff" stroke-linecap="round" stroke-linejoin="round" stroke-width="1"></path>
  <path d="m39.314 51.84 0.034 -33.873" fill="none" stroke="#4acfff" stroke-linecap="round" stroke-linejoin="round" stroke-width="1"></path>
  <path d="m24.885 51.84 0 -33.873" fill="none" stroke="#4acfff" stroke-linecap="round" stroke-linejoin="round" stroke-width="1"></path>
  <path d="m77.41 34.904 5.192 5.191" fill="none" stroke="#4acfff" stroke-linecap="round" stroke-linejoin="round" stroke-width="1"></path>
  <path d="m46.173 17.967 33.702 33.702" fill="none" stroke="#4acfff" stroke-linecap="round" stroke-linejoin="round" stroke-width="1"></path>
  <path d="m20.137 20.361 55.238 55.238" fill="none" stroke="#4acfff" stroke-linecap="round" stroke-linejoin="round" stroke-width="1"></path>
  <path d="m39.314 54.212 28.935 28.935" fill="none" stroke="#4acfff" stroke-linecap="round" stroke-linejoin="round" stroke-width="1"></path>
  <path d="m44.591 74.685 16.228 15.901" fill="none" stroke="#4acfff" stroke-linecap="round" stroke-linejoin="round" stroke-width="1"></path>
  <path d="m14.095 28.994 22.847 22.847" fill="none" stroke="#4acfff" stroke-linecap="round" stroke-linejoin="round" stroke-width="1"></path>
  <path d="m27.569 51.84 33.389 -33.389" fill="none" stroke="#4acfff" stroke-linecap="round" stroke-linejoin="round" stroke-width="1"></path>
  <path d="m18.191 46.755 28.788 -28.788" fill="none" stroke="#4acfff" stroke-linecap="round" stroke-linejoin="round" stroke-width="1"></path>
  <path d="m12.262 38.203 20.236 -20.236" fill="none" stroke="#4acfff" stroke-linecap="round" stroke-linejoin="round" stroke-width="1"></path>
  <path d="M43.45 64.856 75.4 32.905" fill="none" stroke="#4acfff" stroke-linecap="round" stroke-linejoin="round" stroke-width="1"></path>
  <path d="m68.172 54.525 14.43 -14.43" fill="none" stroke="#4acfff" stroke-linecap="round" stroke-linejoin="round" stroke-width="1"></path>
  <path d="m48.981 88.282 26.415 -26.415" fill="none" stroke="#4acfff" stroke-linecap="round" stroke-linejoin="round" stroke-width="1"></path>
  <path d="M56.4 13.891a2.419 2.419 0 0 0 -3.426 0l-3.354 3.36a2.422 2.422 0 0 1 -1.719 0.716H23.014A2.423 2.423 0 0 0 21.031 19L10.858 33.513a2.42 2.42 0 0 0 0 2.779l10.173 14.517a2.425 2.425 0 0 0 1.983 1.031h16.3V59a2.426 2.426 0 0 0 0.567 1.558l2.634 3.134L45 66.844a2.418 2.418 0 0 1 0.521 1.5v3.818l-3.319 9.5a2.422 2.422 0 0 0 0.963 2.827l9.063 5.911a2.417 2.417 0 0 0 1.323 0.393h6.433a2.422 2.422 0 0 0 1.761 -0.759L75.424 75.55V58.613l10.129 -15.8c0.208 -0.323 1.03 -2.649 1.734 -4.694A2.421 2.421 0 0 0 85 34.9h-7.59l-9.135 -9.3 -7.317 -7.147Z" fill="none" stroke="#4acfff" stroke-linecap="round" stroke-linejoin="round" stroke-width="1"></path>
  <path d="m39.314 54.525 28.495 -28.927" fill="none" stroke="#45413c" stroke-linecap="round" stroke-linejoin="round" stroke-width="1"></path>
  <path d="m31.427 19.038 7.887 35.487" fill="none" stroke="#45413c" stroke-linecap="round" stroke-linejoin="round" stroke-width="1"></path>
  <path d="m39.314 54.525 5.907 22.95" fill="none" stroke="#45413c" stroke-linecap="round" stroke-linejoin="round" stroke-width="1"></path>
  <path d="m68.27 25.189 0 24.589" fill="none" stroke="#45413c" stroke-linecap="round" stroke-linejoin="round" stroke-width="1"></path>
  <path d="m31.496 17.967 36.779 7.222" fill="none" stroke="#45413c" stroke-linecap="round" stroke-linejoin="round" stroke-width="1"></path>
  <path d="M45.221 77.475 68.61 54.087" fill="none" stroke="#45413c" stroke-linecap="round" stroke-linejoin="round" stroke-width="1"></path>
  <path d="M68.172 54.525 31.496 17.967" fill="none" stroke="#45413c" stroke-linecap="round" stroke-linejoin="round" stroke-width="1"></path>
  <path d="M60.492 54.605a7.914 7.914 0 1 0 15.828 0 7.914 7.914 0 1 0 -15.828 0Z" fill="#ff6242" stroke-width="1"></path>
  <path d="M76.14 56.291a7.914 7.914 0 1 0 -15.468 0c0.766 -3.569 4.579 -5.692 7.734 -5.692 2.546 0.001 6.967 2.123 7.734 5.692Z" fill="#ff6242" stroke-width="1"></path>
  <path d="M60.492 54.605a7.914 7.914 0 1 0 15.828 0 7.914 7.914 0 1 0 -15.828 0Z" fill="none" stroke="#45413c" stroke-linecap="round" stroke-linejoin="round" stroke-width="1"></path>
  <path d="M35.916 54.586a3.517 3.517 0 1 0 7.034 0 3.517 3.517 0 1 0 -7.034 0Z" fill="#4acfff" stroke-width="1"></path>
  <path d="M42.871 55.335a3.518 3.518 0 1 0 -6.875 0c0.341 -1.586 2.72 -2.133 3.437 -2.133 0.759 -0.002 3.097 0.547 3.438 2.133Z" fill="#4acfff" stroke-width="1"></path>
  <path d="M35.916 54.586a3.517 3.517 0 1 0 7.034 0 3.517 3.517 0 1 0 -7.034 0Z" fill="none" stroke="#45413c" stroke-linecap="round" stroke-linejoin="round" stroke-width="1"></path>
  <path d="M64.753 25.189a3.517 3.517 0 1 0 7.034 0 3.517 3.517 0 1 0 -7.034 0Z" fill="#4acfff" stroke-width="1"></path>
  <path d="M71.707 25.938a3.518 3.518 0 1 0 -6.875 0c0.341 -1.586 2.765 -1.975 3.438 -1.975 0.73 0 3.096 0.389 3.437 1.975Z" fill="#4acfff" stroke-width="1"></path>
  <path d="M64.753 25.189a3.517 3.517 0 1 0 7.034 0 3.517 3.517 0 1 0 -7.034 0Z" fill="none" stroke="#45413c" stroke-linecap="round" stroke-linejoin="round" stroke-width="1"></path>
  <path d="M41.319 77.071a3.517 3.517 0 1 0 7.034 0 3.517 3.517 0 1 0 -7.034 0Z" fill="#ffe500" stroke-width="1"></path>
  <path d="M48.273 77.82a3.517 3.517 0 1 0 -6.874 0c0.34 -1.586 2.538 -2.3 3.437 -2.3 1.069 0 3.097 0.714 3.437 2.3Z" fill="#fff48c" stroke-width="1"></path>
  <path d="M41.319 77.071a3.517 3.517 0 1 0 7.034 0 3.517 3.517 0 1 0 -7.034 0Z" fill="none" stroke="#45413c" stroke-linecap="round" stroke-linejoin="round" stroke-width="1"></path>
  <path d="M25.931 17.783a5.496 5.496 0 1 0 10.992 0 5.496 5.496 0 1 0 -10.992 0Z" fill="#ffe500" stroke-width="1"></path>
  <path d="M36.8 18.954a5.5 5.5 0 1 0 -10.741 0 6.634 6.634 0 0 1 5.37 -3.441 6.209 6.209 0 0 1 5.371 3.441Z" fill="#fff48c" stroke-width="1"></path>
  <path d="M25.931 17.783a5.496 5.496 0 1 0 10.992 0 5.496 5.496 0 1 0 -10.992 0Z" fill="none" stroke="#45413c" stroke-linecap="round" stroke-linejoin="round" stroke-width="1"></path>
</svg>