<svg xmlns="http://www.w3.org/2000/svg" fill="none" viewBox="0 0 200 200" id="Workflow--Streamline-Bangalore">
  <desc>
    Workflow Streamline Illustration: https://streamlinehq.com
  </desc>
  <g id="workflow--work-workflow">
    <g id="chat bubble 1">
      <path id="Vector" stroke="#120071" stroke-linecap="round" stroke-linejoin="round" d="m152.964 144.921 8.339 10.747 -11.175 -3.287a18.49 18.49 0 1 1 -15.46 -28.636c10.361 0 19.663 8.655 18.296 21.176Z" stroke-width="1"></path>
      <path id="Vector_2" stroke="#120071" stroke-linecap="round" stroke-linejoin="round" d="M127.141 138.856h15.508" stroke-width="1"></path>
      <path id="Vector_3" stroke="#120071" stroke-linecap="round" stroke-linejoin="round" d="M127.141 142.788h15.508" stroke-width="1"></path>
      <path id="Vector_4" stroke="#120071" stroke-linecap="round" stroke-linejoin="round" d="M127.141 146.721h15.508" stroke-width="1"></path>
    </g>
    <g id="cog">
      <path id="Vector_5" fill="#6153bd" d="M89.814 66.184a3.566 3.566 0 0 0 -3.868 -1.6 13.051 13.051 0 0 0 -2.257 -3.739 3.564 3.564 0 1 0 -5.835 -3.9 13.128 13.128 0 0 0 -7.746 -0.15A3.564 3.564 0 1 0 64.1 60.5a13.128 13.128 0 0 0 -3.331 6.9 3.564 3.564 0 1 0 0.834 7.014 13.045 13.045 0 0 0 2.321 3.71 3.566 3.566 0 1 0 5.918 3.818c2.448 0.762 5.064 0.79 7.528 0.083a3.566 3.566 0 0 0 5.135 1.61 3.562 3.562 0 0 0 0.875 -5.31 13.14 13.14 0 0 0 3.3 -6.706 3.57 3.57 0 0 0 3.134 -5.435Zm-12.4 9.2a7.008 7.008 0 1 1 3.24 -7.086 7.006 7.006 0 0 1 -3.238 7.081l-0.002 0.005Z" stroke-width="1"></path>
      <path id="Vector_6" stroke="#120071" stroke-linecap="round" stroke-linejoin="round" d="M89.814 66.184a3.566 3.566 0 0 0 -3.868 -1.6 13.051 13.051 0 0 0 -2.257 -3.739 3.564 3.564 0 1 0 -5.835 -3.9 13.128 13.128 0 0 0 -7.746 -0.15A3.564 3.564 0 1 0 64.1 60.5a13.128 13.128 0 0 0 -3.331 6.9 3.564 3.564 0 1 0 0.834 7.014 13.045 13.045 0 0 0 2.321 3.71 3.566 3.566 0 1 0 5.918 3.818c2.448 0.762 5.064 0.79 7.528 0.083a3.566 3.566 0 0 0 5.135 1.61 3.562 3.562 0 0 0 0.875 -5.31 13.14 13.14 0 0 0 3.3 -6.706 3.57 3.57 0 0 0 3.134 -5.435v0Zm-12.4 9.2a7.008 7.008 0 1 1 3.24 -7.086 7.006 7.006 0 0 1 -3.238 7.081l-0.002 0.005Z" stroke-width="1"></path>
    </g>
    <g id="exclamation sign">
      <path id="Vector_7" stroke="#120071" stroke-linecap="round" stroke-linejoin="round" d="M147.14 75.212a26.28 26.28 0 0 0 -3.2 -0.015 2.879 2.879 0 0 0 -1.969 0.649 2.11 2.11 0 0 0 -0.292 2.169c1.195 3.22 5.7 2.92 7.747 5.45 1.015 1.259 1 3.5 -0.468 4.183 -0.842 0.392 -1.385 0.23 -6.756 -0.373a6.526 6.526 0 0 0 -3.324 0.2 2.247 2.247 0 0 0 -1.384 2.7c0.716 1.706 3.7 1.407 6.466 3.312 2.737 1.883 2.963 4.648 1.9 5.866 -1.386 1.583 -3.492 0.45 -7.928 1.4a5.509 5.509 0 0 0 -2.466 1.037 2.285 2.285 0 0 0 -0.8 2.412c0.715 1.961 3.4 1.214 7.905 3.832 2.927 1.7 3.155 4.606 -0.537 4.869 -2.954 0.211 -6.142 -0.423 -8.727 1.023 -1.133 0.634 -2.117 1.952 -1.644 3.161 0.532 1.363 2.35 1.512 3.808 1.642 1.38 0.123 4.781 0.72 5.456 1.93 0.6 1.078 -0.225 2.993 -3.506 3.285" stroke-width="1"></path>
      <path id="Vector_8" stroke="#120071" stroke-linecap="round" stroke-linejoin="round" d="M149.459 75.469c5.815 0 10.529 -4.714 10.529 -10.53 0 -5.814 -4.714 -10.528 -10.529 -10.528 -5.815 0 -10.529 4.714 -10.529 10.529 0 5.815 4.714 10.529 10.529 10.529Z" stroke-width="1"></path>
      <path id="Vector_9" stroke="#120071" stroke-linecap="round" stroke-linejoin="round" d="M149.459 58.559v7.922" stroke-width="1"></path>
      <path id="Vector_10" stroke="#120071" stroke-linecap="round" stroke-linejoin="round" d="M149.459 68.84v1.687" stroke-width="1"></path>
    </g>
    <g id="document">
      <path id="Vector_11" stroke="#120071" stroke-linecap="round" stroke-linejoin="round" d="M115.53 110.438c9.814 0 17.77 -7.956 17.77 -17.77s-7.956 -17.77 -17.77 -17.77 -17.77 7.956 -17.77 17.77 7.956 17.77 17.77 17.77Z" stroke-width="1"></path>
      <path id="Vector_12" stroke="#120071" stroke-linecap="round" stroke-linejoin="round" d="M109.48 83.877h-2.275v20.733h15.357v-2.276" stroke-width="1"></path>
      <path id="Vector_13" stroke="#120071" stroke-linecap="round" stroke-linejoin="round" d="M124.837 81.6H109.48v20.734h15.357V81.601Z" stroke-width="1"></path>
      <path id="Vector_14" stroke="#120071" stroke-linecap="round" stroke-linejoin="round" d="M113.881 87.417h6.574" stroke-width="1"></path>
      <path id="Vector_15" stroke="#120071" stroke-linecap="round" stroke-linejoin="round" d="M113.881 90.198h6.574" stroke-width="1"></path>
      <path id="Vector_16" stroke="#120071" stroke-linecap="round" stroke-linejoin="round" d="M113.881 92.668h6.574" stroke-width="1"></path>
    </g>
    <g id="chat bubble 2">
      <path id="Vector_17" stroke="#120071" stroke-linecap="round" stroke-linejoin="round" d="M44.877 79.915a12.672 12.672 0 0 0 -21.586 -1.394 12.67 12.67 0 0 0 0.02 14.594l-1.134 8.914 6.261 -4.678c11.298 4.858 21.95 -6.946 16.439 -17.436Z" stroke-width="1"></path>
      <path id="Vector_18" stroke="#120071" stroke-linecap="round" stroke-linejoin="round" d="M30.548 82.844c-0.21 -1.587 2.225 -3.39 4.234 -2.7a2.4 2.4 0 0 1 1.6 2.74c-0.3 1.068 -1.4 1.699 -1.959 2.655a5.849 5.849 0 0 0 -0.557 2.862" stroke-width="1"></path>
      <path id="Vector_19" stroke="#120071" stroke-linecap="round" stroke-linejoin="round" d="M33.945 90.198v1.517" stroke-width="1"></path>
    </g>
    <g id="phone">
      <path id="Vector_20" stroke="#120071" stroke-linecap="round" stroke-linejoin="round" d="M167.11 126.199c8.705 0 15.761 -7.056 15.761 -15.761 0 -8.705 -7.056 -15.761 -15.761 -15.761 -8.705 0 -15.761 7.056 -15.761 15.761 0 8.705 7.056 15.761 15.761 15.761Z" stroke-width="1"></path>
      <path id="Vector_21" fill="#6153bd" d="m177.171 115.5 -1.229 -1.229a3.227 3.227 0 0 0 -4.2 -0.312 23.358 23.358 0 0 0 -1.99 1.94 20.744 20.744 0 0 1 -8.037 -8.037 21.553 21.553 0 0 0 1.94 -1.989 3.228 3.228 0 0 0 -0.312 -4.2l-1.23 -1.23a2.79 2.79 0 0 0 -3.747 0.145 5.677 5.677 0 0 0 -1.432 3.023c-1.293 7.852 9.222 18.367 17.074 17.074a5.676 5.676 0 0 0 3.023 -1.431 2.808 2.808 0 0 0 0.14 -3.754Z" stroke-width="1"></path>
      <path id="Vector_22" stroke="#120071" stroke-linecap="round" stroke-linejoin="round" d="m177.171 115.5 -1.229 -1.229a3.227 3.227 0 0 0 -4.2 -0.312 23.358 23.358 0 0 0 -1.99 1.94 20.744 20.744 0 0 1 -8.037 -8.037 21.553 21.553 0 0 0 1.94 -1.989 3.228 3.228 0 0 0 -0.312 -4.2l-1.23 -1.23a2.79 2.79 0 0 0 -3.747 0.145 5.677 5.677 0 0 0 -1.432 3.023c-1.293 7.852 9.222 18.367 17.074 17.074a5.676 5.676 0 0 0 3.023 -1.431 2.808 2.808 0 0 0 0.14 -3.754v0Z" stroke-width="1"></path>
    </g>
    <g id="briefcase">
      <path id="Vector_23" fill="#6153bd" d="m94.155 141.848 -42.332 11.284a4.343 4.343 0 0 1 -5.314 -3.077l-8.416 -31.572a4.943 4.943 0 0 1 0.054 -2.906l-1.929 3.414a7.26 7.26 0 0 0 -0.694 5.441l8.124 30.477a4.816 4.816 0 0 0 5.89 3.41l41.112 -10.96a6.025 6.025 0 0 0 3.7 -2.87l2.424 -4.324a5.538 5.538 0 0 1 -2.619 1.683Z" stroke-width="1"></path>
      <path id="Vector_24" stroke="#120071" stroke-linecap="round" stroke-linejoin="round" d="M96.982 139.794a3.89 3.89 0 0 0 0.345 -2.908l-8.6 -32.255a3.998 3.998 0 0 0 -4.895 -2.835l-43.015 11.467a3.961 3.961 0 0 0 -2.52 2.048l-2.079 3.68a7.26 7.26 0 0 0 -0.694 5.441l8.124 30.477a4.816 4.816 0 0 0 5.89 3.41l41.112 -10.96a6.02 6.02 0 0 0 3.7 -2.87l2.632 -4.695Z" stroke-width="1"></path>
      <path id="Vector_25" fill="#6153bd" d="m48.611 111.186 5.221 -1.392a3.635 3.635 0 0 1 2.563 -4.5l6.1 -1.628a3.638 3.638 0 0 1 2.78 0.379 3.625 3.625 0 0 1 1.681 2.245l5.221 -1.392C70.689 99.3 65.8 97.3 61.7 98.39l-7.243 1.931c-4.139 1.104 -7.331 5.29 -5.846 10.865Z" stroke-width="1"></path>
      <path id="Vector_26" stroke="#120071" stroke-linecap="round" stroke-linejoin="round" d="m48.611 111.186 5.221 -1.392a3.635 3.635 0 0 1 2.563 -4.5l6.1 -1.628a3.638 3.638 0 0 1 2.78 0.379 3.625 3.625 0 0 1 1.681 2.245l5.221 -1.392C70.689 99.3 65.8 97.3 61.7 98.39l-7.243 1.931c-4.139 1.104 -7.331 5.29 -5.846 10.865Z" stroke-width="1"></path>
      <path id="Vector_27" stroke="#120071" stroke-linecap="round" stroke-linejoin="round" d="M94.155 141.848a4.339 4.339 0 0 0 3.186 -3.624 4.343 4.343 0 0 0 -0.109 -1.691l-8.5 -31.9a3.998 3.998 0 0 0 -4.895 -2.835L41.17 113.169a4.345 4.345 0 0 0 -3.077 5.315l8.416 31.571a4.332 4.332 0 0 0 2.02 2.639 4.336 4.336 0 0 0 3.294 0.438l42.332 -11.284Z" stroke-width="1"></path>
      <path id="Vector_28" stroke="#120071" stroke-linecap="round" stroke-linejoin="round" d="M43.636 139.276c22.863 1.045 35.257 -3.68 50.723 -13.521" stroke-width="1"></path>
      <path id="Vector_29" fill="#6153bd" d="m74.605 139.764 -5 -18.745 -6.863 1.829 5 18.745a3.551 3.551 0 0 0 6.863 -1.829Z" stroke-width="1"></path>
      <path id="Vector_30" stroke="#120071" stroke-linecap="round" stroke-linejoin="round" d="m74.605 139.764 -5 -18.745 -6.863 1.829 5 18.745a3.551 3.551 0 0 0 6.863 -1.829v0Z" stroke-width="1"></path>
    </g>
    <g id="light bulb">
      <path id="Vector_31" fill="#fecfc4" d="M114.325 24.456A18.578 18.578 0 0 0 97.53 38.369a18.575 18.575 0 0 0 8.006 20.287 8.352 8.352 0 0 1 3.944 7.276h13.248c0 -3.024 0.577 -5.693 3.459 -7.715a18.574 18.574 0 0 0 6.871 -21.377 18.581 18.581 0 0 0 -18.733 -12.381v-0.003Z" stroke-width="1"></path>
      <path id="Vector_32" stroke="#120071" stroke-linecap="round" stroke-linejoin="round" d="M114.325 24.456A18.578 18.578 0 0 0 97.53 38.369a18.575 18.575 0 0 0 8.006 20.287 8.352 8.352 0 0 1 3.944 7.276h13.248c0 -3.024 0.577 -5.693 3.459 -7.715a18.574 18.574 0 0 0 6.871 -21.377 18.581 18.581 0 0 0 -18.733 -12.381v-0.003Z" stroke-width="1"></path>
      <path id="Vector_33" fill="#6153bd" d="M109.48 65.929a6.625 6.625 0 0 0 13.248 0H109.48Z" stroke-width="1"></path>
      <path id="Vector_34" stroke="#120071" stroke-linecap="round" stroke-linejoin="round" d="M109.48 65.929a6.625 6.625 0 0 0 13.248 0H109.48Z" stroke-width="1"></path>
      <path id="Vector_35" stroke="#120071" stroke-linecap="round" stroke-linejoin="round" d="M114.3 41.459a9.537 9.537 0 0 0 0 7.458 9.538 9.538 0 0 0 0 -7.458v0Z" stroke-width="1"></path>
      <path id="Vector_36" stroke="#120071" stroke-linecap="round" stroke-linejoin="round" d="M117.942 41.459a9.537 9.537 0 0 0 0 7.458 9.538 9.538 0 0 0 0 -7.458Z" stroke-width="1"></path>
      <path id="Vector_37" stroke="#120071" stroke-linecap="round" stroke-linejoin="round" d="M117.926 65.925v-10.72c0 -4.724 3.693 -5.13 3.693 -10.017 0 -2.858 -0.986 -5.264 -2 -5.264 -0.776 0 -1.22 0.36 -1.672 1.535 -0.546 -0.8 -1.045 -1.445 -1.821 -1.445a2.281 2.281 0 0 0 -1.821 1.445c-1.378 -2.778 -4.01 -1.527 -3.659 3.73 0.306 4.58 3.659 5.378 3.659 10.016v10.72" stroke-width="1"></path>
    </g>
    <g id="arrow 4">
      <path id="Vector_38" stroke="#120071" stroke-linecap="round" stroke-linejoin="round" d="M155.691 146.976a17.23 17.23 0 0 0 16.35 -5.819 17.223 17.223 0 0 0 2.987 -17.096" stroke-width="1"></path>
      <path id="Vector_39" fill="#6153bd" d="M154.37 147.97a1.374 1.374 0 1 0 0 -2.748 1.374 1.374 0 0 0 0 2.748Z" stroke-width="1"></path>
      <path id="Vector_40" stroke="#120071" stroke-linecap="round" stroke-linejoin="round" d="M154.37 147.97a1.374 1.374 0 1 0 0 -2.748 1.374 1.374 0 0 0 0 2.748Z" stroke-width="1"></path>
      <path id="Vector_41" stroke="#120071" stroke-linecap="round" stroke-linejoin="round" d="m181.479 128.107 -6.451 -4.046 -1.933 7.365" stroke-width="1"></path>
    </g>
    <g id="arrow 5">
      <path id="Vector_42" stroke="#120071" stroke-linecap="round" stroke-linejoin="round" d="M171.1 92.867a32.401 32.401 0 0 0 -37.044 -48.525" stroke-width="1"></path>
      <path id="Vector_43" fill="#6153bd" d="M169.693 97.345a2.458 2.458 0 1 0 0 -4.917 2.458 2.458 0 0 0 0 4.917Z" stroke-width="1"></path>
      <path id="Vector_44" stroke="#120071" stroke-linecap="round" stroke-linejoin="round" d="M169.693 97.345a2.458 2.458 0 1 0 0 -4.917 2.458 2.458 0 0 0 0 4.917Z" stroke-width="1"></path>
      <path id="Vector_45" stroke="#120071" stroke-linecap="round" stroke-linejoin="round" d="m139.116 38.656 -5.065 5.686 6.94 3.134" stroke-width="1"></path>
    </g>
    <g id="arrow 1">
      <path id="Vector_46" stroke="#120071" stroke-linecap="round" stroke-linejoin="round" d="M96.5 34.306a37.672 37.672 0 0 0 -60.072 39.15" stroke-width="1"></path>
      <path id="Vector_47" fill="#6153bd" d="M98.357 38.375a2.458 2.458 0 1 0 0 -4.916 2.458 2.458 0 0 0 0 4.916Z" stroke-width="1"></path>
      <path id="Vector_48" stroke="#120071" stroke-linecap="round" stroke-linejoin="round" d="M98.357 38.375a2.458 2.458 0 1 0 0 -4.916 2.458 2.458 0 0 0 0 4.916Z" stroke-width="1"></path>
      <path id="Vector_49" stroke="#120071" stroke-linecap="round" stroke-linejoin="round" d="m30.741 68.39 5.686 5.066 3.135 -6.94" stroke-width="1"></path>
    </g>
    <g id="arrow 2">
      <path id="Vector_50" stroke="#120071" stroke-linecap="round" stroke-linejoin="round" d="M20.221 90.838a24.22 24.22 0 1 0 18.3 44.845" stroke-width="1"></path>
      <path id="Vector_51" fill="#6153bd" d="M21.762 91.91a1.642 1.642 0 1 0 0 -3.284 1.642 1.642 0 0 0 0 3.284Z" stroke-width="1"></path>
      <path id="Vector_52" stroke="#120071" stroke-linecap="round" stroke-linejoin="round" d="M21.762 91.91a1.642 1.642 0 1 0 0 -3.284 1.642 1.642 0 0 0 0 3.284Z" stroke-width="1"></path>
      <path id="Vector_53" stroke="#120071" stroke-linecap="round" stroke-linejoin="round" d="m33.457 141.369 5.066 -5.686 -6.94 -3.135" stroke-width="1"></path>
    </g>
    <g id="arrow 3">
      <path id="Vector_54" stroke="#120071" stroke-linecap="round" stroke-linejoin="round" d="M78.753 153a23.695 23.695 0 0 0 46.518 5.163" stroke-width="1"></path>
      <path id="Vector_55" fill="#6153bd" d="M78.728 152.998a2.458 2.458 0 1 0 0 -4.915 2.458 2.458 0 0 0 0 4.915Z" stroke-width="1"></path>
      <path id="Vector_56" stroke="#120071" stroke-linecap="round" stroke-linejoin="round" d="M78.728 152.998a2.458 2.458 0 1 0 0 -4.915 2.458 2.458 0 0 0 0 4.915Z" stroke-width="1"></path>
      <path id="Vector_57" stroke="#120071" stroke-linecap="round" stroke-linejoin="round" d="m126.742 165.632 -1.471 -7.471 -6.691 3.636" stroke-width="1"></path>
    </g>
    <g id="elements">
      <g id="Group">
        <path id="Vector_58" stroke="#120071" stroke-linecap="round" stroke-linejoin="round" d="M185.111 76.04H195" stroke-width="1"></path>
        <path id="Vector_59" stroke="#120071" stroke-linecap="round" stroke-linejoin="round" d="M190.056 80.983v-9.889" stroke-width="1"></path>
      </g>
      <g id="Group_2">
        <path id="Vector_60" stroke="#120071" stroke-linecap="round" stroke-linejoin="round" d="M145.674 171.821h5.394" stroke-width="1"></path>
        <path id="Vector_61" stroke="#120071" stroke-linecap="round" stroke-linejoin="round" d="M148.371 174.518v-5.394" stroke-width="1"></path>
      </g>
      <g id="Group_3">
        <path id="Vector_62" stroke="#120071" stroke-linecap="round" stroke-linejoin="round" d="M106.661 122.799h9.889" stroke-width="1"></path>
        <path id="Vector_63" stroke="#120071" stroke-linecap="round" stroke-linejoin="round" d="M111.605 127.744v-9.889" stroke-width="1"></path>
      </g>
      <g id="Group_4">
        <path id="Vector_64" stroke="#120071" stroke-linecap="round" stroke-linejoin="round" d="m58.58 40.014 6.992 6.992" stroke-width="1"></path>
        <path id="Vector_65" stroke="#120071" stroke-linecap="round" stroke-linejoin="round" d="m58.58 47.006 6.992 -6.992" stroke-width="1"></path>
      </g>
      <g id="Group_5">
        <path id="Vector_66" stroke="#120071" stroke-linecap="round" stroke-linejoin="round" d="m19.163 52.888 3.567 3.566" stroke-width="1"></path>
        <path id="Vector_67" stroke="#120071" stroke-linecap="round" stroke-linejoin="round" d="m19.163 56.454 3.567 -3.566" stroke-width="1"></path>
      </g>
    </g>
  </g>
</svg>